<svg width="129" height="124" viewBox="0 0 129 124" fill="none" xmlns="http://www.w3.org/2000/svg">
<path d="M95.6575 3V32.2655H126C126.552 32.2655 127 32.7132 127 33.2655V59.938C127 60.4903 126.552 60.938 126 60.938H95.6575V91.469V121C95.6575 121.552 95.2098 122 94.6575 122H65.3151C64.7628 122 64.3151 121.552 64.3151 121V92.7965V91.469H33.5231L33.5225 92.7965V121C33.5225 121.552 33.0748 122 32.5225 122H2.99995C2.44766 122 1.99995 121.552 1.99995 121L2 91.469L2.36497 61.3363L2.71754 33.2529C2.72442 32.7056 3.17008 32.2655 3.71747 32.2655H33.5225V3C33.5225 2.44772 33.9702 2 34.5225 2H64.3151H94.6575C95.2098 2 95.6575 2.44772 95.6575 3Z" fill="white"/>
<path d="M95.6575 32.2655V3C95.6575 2.44772 95.2098 2 94.6576 2H64.3151M95.6575 32.2655H126C126.552 32.2655 127 32.7132 127 33.2655V59.9381C127 60.4903 126.552 60.9381 126 60.9381H95.6575M95.6575 32.2655V60.9381M95.6575 32.2655H33.551M95.6575 60.9381V91.469M95.6575 60.9381L2.36497 61.3363M33.5225 32.2655H3.71747C3.17008 32.2655 2.72442 32.7056 2.71754 33.2529L2.36497 61.3363M33.5225 32.2655V3C33.5225 2.44772 33.9702 2 34.5225 2H64.3151M33.5225 32.2655H33.551M64.3151 2V92.7965V121C64.3151 121.552 64.7628 122 65.3151 122H94.6575C95.2098 122 95.6575 121.552 95.6575 121V91.469M95.6575 91.469H2M2 91.469L1.99995 121C1.99995 121.552 2.44766 122 2.99995 122H32.5225C33.0748 122 33.5225 121.552 33.5225 121V92.7965L33.551 32.2655M2 91.469L2.36497 61.3363" stroke="#000C26" stroke-width="3.5"/>
<path d="M11.8976 41.4074L13.6062 53.0195C13.7723 54.1483 15.3956 54.163 15.5821 53.0374L17.3219 42.5373C17.5042 41.4371 19.0783 41.4158 19.2902 42.5107L21.3522 53.163C21.5657 54.2658 23.1548 54.2331 23.3228 53.1225L25.0944 41.4074" stroke="black" stroke-width="3" stroke-linecap="round"/>
<path d="M43.7899 11.5576H49.2886M54.7873 11.5576H49.2886M49.2886 11.5576V24.301" stroke="black" stroke-width="3" stroke-linecap="round"/>
<path d="M43.7899 83.6839V71.088C43.7899 70.0287 45.2212 69.6965 45.6877 70.6476L51.7897 83.087C52.2563 84.0381 53.6875 83.7059 53.6875 82.6466V70.1675" stroke="black" stroke-width="3" stroke-linecap="round"/>
<path d="M76.782 54.0355V45.5913M76.782 45.5913C76.782 45.5913 76.782 40.1344 76.782 39.5604C76.782 38.9864 85.5799 38.5523 85.5799 41.9736C85.5799 46.7973 76.782 45.5913 76.782 45.5913ZM76.782 45.5913L84.4801 53.5045" stroke="black" stroke-width="3" stroke-linecap="round"/>
<path d="M56.3865 46.6018C56.3865 50.2993 53.2652 53.3974 49.2886 53.3974C45.312 53.3974 42.1907 50.2993 42.1907 46.6018C42.1907 42.9042 45.312 39.8062 49.2886 39.8062C53.2652 39.8062 56.3865 42.9042 56.3865 46.6018Z" stroke="black" stroke-width="3.4"/>
<path d="M24.4942 107.133C24.4942 110.83 21.3729 113.928 17.3963 113.928C13.4197 113.928 10.2984 110.83 10.2984 107.133C10.2984 103.435 13.4197 100.337 17.3963 100.337C21.3729 100.337 24.4942 103.435 24.4942 107.133Z" stroke="black" stroke-width="3.4"/>
</svg>
