<svg width="129" height="129" viewBox="0 0 129 129" fill="none" xmlns="http://www.w3.org/2000/svg">
<rect x="2.25" y="2.25" width="124.5" height="124.5" rx="3.75" fill="white" stroke="black" stroke-width="3.5"/>
<path d="M41.9027 26.0395C41.9027 32.9739 35.763 38.8002 27.926 38.8002C20.0889 38.8002 13.9492 32.9739 13.9492 26.0395C13.9492 19.1052 20.0889 13.2788 27.926 13.2788C35.763 13.2788 41.9027 19.1052 41.9027 26.0395Z" fill="white" stroke="black" stroke-width="3"/>
<path d="M77.5461 26.0395C77.5461 33.0158 71.5716 38.8002 64.0384 38.8002C56.5052 38.8002 50.5306 33.0158 50.5306 26.0395C50.5306 19.0632 56.5052 13.2788 64.0384 13.2788C71.5716 13.2788 77.5461 19.0632 77.5461 26.0395Z" fill="white" stroke="black" stroke-width="3"/>
<path d="M114.127 26.0395C114.127 32.9739 107.988 38.8002 100.151 38.8002C92.3136 38.8002 86.174 32.9739 86.174 26.0395C86.174 19.1052 92.3136 13.2788 100.151 13.2788C107.988 13.2788 114.127 19.1052 114.127 26.0395Z" fill="white" stroke="black" stroke-width="3"/>
<path d="M41.9027 63.2036C41.9027 70.1379 35.763 75.9643 27.926 75.9643C20.0889 75.9643 13.9492 70.1379 13.9492 63.2036C13.9492 56.2692 20.0889 50.4429 27.926 50.4429C35.763 50.4429 41.9027 56.2692 41.9027 63.2036Z" fill="white" stroke="black" stroke-width="3"/>
<path d="M77.5461 63.2036C77.5461 70.1799 71.5716 75.9643 64.0384 75.9643C56.5052 75.9643 50.5306 70.1799 50.5306 63.2036C50.5306 56.2273 56.5052 50.4429 64.0384 50.4429C71.5716 50.4429 77.5461 56.2273 77.5461 63.2036Z" fill="white" stroke="black" stroke-width="3"/>
<path d="M114.127 63.2036C114.127 70.1379 107.988 75.9643 100.151 75.9643C92.3136 75.9643 86.174 70.1379 86.174 63.2036C86.174 56.2692 92.3136 50.4429 100.151 50.4429C107.988 50.4429 114.127 56.2692 114.127 63.2036Z" fill="white" stroke="black" stroke-width="3"/>
<path d="M41.9027 101.232C41.9027 108.166 35.763 113.993 27.926 113.993C20.0889 113.993 13.9492 108.166 13.9492 101.232C13.9492 94.2976 20.0889 88.4712 27.926 88.4712C35.763 88.4712 41.9027 94.2976 41.9027 101.232Z" fill="white" stroke="black" stroke-width="3"/>
<path d="M77.5461 101.232C77.5461 108.208 71.5716 113.993 64.0384 113.993C56.5052 113.993 50.5306 108.208 50.5306 101.232C50.5306 94.2556 56.5052 88.4712 64.0384 88.4712C71.5716 88.4712 77.5461 94.2556 77.5461 101.232Z" fill="white" stroke="black" stroke-width="3"/>
<path d="M114.127 101.232C114.127 108.166 107.988 113.993 100.151 113.993C92.3136 113.993 86.174 108.166 86.174 101.232C86.174 94.2976 92.3136 88.4712 100.151 88.4712C107.988 88.4712 114.127 94.2976 114.127 101.232Z" fill="white" stroke="black" stroke-width="3"/>
<path d="M31.7297 30.9626C31.6921 31.2381 31.5982 31.4698 31.4479 31.6576C31.2976 31.858 31.1223 31.9957 30.9219 32.0709C30.7341 32.146 30.5275 32.1523 30.302 32.0896C30.0891 32.0396 29.8888 31.8955 29.7009 31.6576C29.5381 31.4572 29.4442 31.2381 29.4192 31.0001C29.4066 30.7497 29.3753 30.5055 29.3252 30.2675C29.2 29.5788 29.0184 28.8712 28.7805 28.1449C28.0041 28.1574 27.2339 28.1637 26.47 28.1637C25.7061 28.1637 24.9422 28.1699 24.1783 28.1825C24.0656 28.5081 23.9654 28.8399 23.8777 29.178C23.8026 29.5162 23.7275 29.848 23.6523 30.1736C23.5897 30.4241 23.5333 30.6871 23.4833 30.9626C23.4332 31.2256 23.3205 31.4572 23.1451 31.6576C22.9322 31.9081 22.7006 32.0458 22.4501 32.0709C22.2122 32.1084 21.993 32.0709 21.7926 31.9582C21.6048 31.8454 21.4483 31.6764 21.323 31.451C21.2103 31.213 21.1728 30.9438 21.2103 30.6432C21.2479 30.255 21.323 29.8731 21.4357 29.4974C21.5484 29.1217 21.6549 28.746 21.7551 28.3703C22.3186 26.2163 23.045 24.1313 23.9341 22.1151C24.0092 21.9397 24.0844 21.7707 24.1595 21.6079C24.2472 21.4451 24.3286 21.2823 24.4037 21.1195C24.4914 20.9442 24.579 20.7563 24.6667 20.5559C24.7543 20.3556 24.8545 20.174 24.9672 20.0112C25.0925 19.8359 25.2365 19.6919 25.3993 19.5791C25.5621 19.4539 25.7624 19.3913 26.0004 19.3913C26.3135 19.3913 26.5764 19.4915 26.7893 19.6919C27.6409 20.5434 28.3422 21.5077 28.8932 22.5847C29.4442 23.6491 29.9389 24.7386 30.3772 25.8532C30.6402 25.8407 30.8969 25.8407 31.1473 25.8532C31.3978 25.8657 31.6232 25.9784 31.8236 26.1913C31.9989 26.3666 32.0991 26.5545 32.1241 26.7548C32.1617 26.9552 32.1429 27.1493 32.0678 27.3372C32.0052 27.525 31.8925 27.6878 31.7297 27.8256C31.5794 27.9633 31.3915 28.0572 31.1661 28.1073C31.2914 28.5456 31.3978 28.9965 31.4855 29.4598C31.5857 29.9106 31.667 30.3677 31.7297 30.8311V30.9626ZM27.8976 25.8532C27.6597 25.2896 27.403 24.7324 27.1275 24.1814C26.8645 23.6178 26.5639 23.0856 26.2258 22.5847C25.9753 23.1357 25.7374 23.6867 25.512 24.2377C25.2991 24.7762 25.0987 25.3272 24.9109 25.8907C25.4995 25.8782 26.0129 25.872 26.4512 25.872C26.902 25.872 27.3842 25.8657 27.8976 25.8532Z" fill="black"/>
<path d="M31.7297 105.291C31.6921 105.567 31.5982 105.798 31.4479 105.986C31.2976 106.187 31.1223 106.324 30.9219 106.399C30.7341 106.475 30.5275 106.481 30.302 106.418C30.0891 106.368 29.8888 106.224 29.7009 105.986C29.5381 105.786 29.4442 105.567 29.4192 105.329C29.4066 105.078 29.3753 104.834 29.3252 104.596C29.2 103.907 29.0184 103.2 28.7805 102.474C28.0041 102.486 27.2339 102.492 26.47 102.492C25.7061 102.492 24.9422 102.499 24.1783 102.511C24.0656 102.837 23.9654 103.169 23.8777 103.507C23.8026 103.845 23.7275 104.177 23.6523 104.502C23.5897 104.753 23.5333 105.016 23.4833 105.291C23.4332 105.554 23.3205 105.786 23.1451 105.986C22.9322 106.237 22.7006 106.374 22.4501 106.399C22.2122 106.437 21.993 106.399 21.7926 106.287C21.6048 106.174 21.4483 106.005 21.323 105.78C21.2103 105.542 21.1728 105.272 21.2103 104.972C21.2479 104.584 21.323 104.202 21.4357 103.826C21.5484 103.45 21.6549 103.075 21.7551 102.699C22.3186 100.545 23.045 98.4599 23.9341 96.4437C24.0092 96.2684 24.0844 96.0993 24.1595 95.9365C24.2472 95.7737 24.3286 95.6109 24.4037 95.4481C24.4914 95.2728 24.579 95.0849 24.6667 94.8846C24.7543 94.6842 24.8545 94.5026 24.9672 94.3398C25.0925 94.1645 25.2365 94.0205 25.3993 93.9078C25.5621 93.7825 25.7624 93.7199 26.0004 93.7199C26.3135 93.7199 26.5764 93.8201 26.7893 94.0205C27.6409 94.872 28.3422 95.8363 28.8932 96.9133C29.4442 97.9777 29.9389 99.0672 30.3772 100.182C30.6402 100.169 30.8969 100.169 31.1473 100.182C31.3978 100.194 31.6232 100.307 31.8236 100.52C31.9989 100.695 32.0991 100.883 32.1241 101.083C32.1617 101.284 32.1429 101.478 32.0678 101.666C32.0052 101.854 31.8925 102.016 31.7297 102.154C31.5794 102.292 31.3915 102.386 31.1661 102.436C31.2914 102.874 31.3978 103.325 31.4855 103.788C31.5857 104.239 31.667 104.696 31.7297 105.16V105.291ZM27.8976 100.182C27.6597 99.6183 27.403 99.061 27.1275 98.51C26.8645 97.9464 26.5639 97.4142 26.2258 96.9133C25.9753 97.4643 25.7374 98.0153 25.512 98.5663C25.2991 99.1048 25.0987 99.6558 24.9109 100.219C25.4995 100.207 26.0129 100.201 26.4512 100.201C26.902 100.201 27.3842 100.194 27.8976 100.182Z" fill="black"/>
<path d="M62.3163 30.8311C62.2788 31.1066 62.1723 31.3445 61.997 31.5449C61.8217 31.7578 61.6213 31.9018 61.3959 31.9769C61.1705 32.0521 60.9451 32.0521 60.7197 31.9769C60.4942 31.9018 60.3189 31.7202 60.1937 31.4322C60.1311 31.2944 60.0872 31.0502 60.0622 30.6996C60.0372 30.3364 60.0184 29.9607 60.0058 29.5725C59.9933 29.1843 59.9871 28.8274 59.9871 28.5018C59.9996 28.1637 60.0058 27.957 60.0058 27.8819V23.9559C60.0058 23.9184 59.9996 23.7305 59.9871 23.3924C59.9871 23.0543 59.9871 22.6849 59.9871 22.2841C59.9996 21.8709 60.0184 21.4764 60.0434 21.1007C60.081 20.7125 60.1436 20.4495 60.2313 20.3117C60.344 20.1239 60.4817 19.9924 60.6445 19.9173C60.8073 19.8296 60.9701 19.792 61.1329 19.8046C61.3082 19.8171 61.4773 19.8672 61.6401 19.9548C61.8154 20.0425 61.9594 20.174 62.0721 20.3493C62.1222 20.4119 62.1661 20.4871 62.2036 20.5747C62.2537 20.6624 62.2788 20.7438 62.2788 20.8189C62.2913 21.42 62.2913 22.0149 62.2788 22.6035C62.2663 23.1795 62.26 23.7681 62.26 24.3692C62.7108 24.1062 63.1241 23.8119 63.4998 23.4863C63.888 23.1482 64.2637 22.7663 64.6268 22.3405C64.7145 22.2278 64.8397 22.0587 65.0025 21.8333C65.1653 21.6079 65.3407 21.3762 65.5285 21.1383C65.7163 20.9003 65.9042 20.6812 66.092 20.4808C66.2799 20.2679 66.4427 20.1302 66.5804 20.0675C66.8559 19.9298 67.1189 19.8797 67.3694 19.9173C67.6198 19.9548 67.8265 20.055 67.9893 20.2178C68.1521 20.3681 68.2523 20.5685 68.2898 20.8189C68.3399 21.0569 68.2961 21.3073 68.1583 21.5703C68.1082 21.683 68.0519 21.7769 67.9893 21.8521C67.9392 21.9272 67.8828 21.9961 67.8202 22.0587C67.7701 22.1213 67.7138 22.1902 67.6512 22.2653C67.5885 22.3405 67.5259 22.4281 67.4633 22.5283C67.3005 22.7913 67.1064 23.0605 66.881 23.3361C66.6556 23.599 66.4176 23.862 66.1672 24.125C65.9167 24.3755 65.66 24.6197 65.397 24.8576C65.134 25.0955 64.8836 25.321 64.6456 25.5338C64.9587 25.872 65.2718 26.2101 65.5849 26.5482C65.8979 26.8863 66.2173 27.2245 66.5429 27.5626C66.618 27.6377 66.7808 27.8005 67.0313 28.051C67.2817 28.2889 67.5447 28.5582 67.8202 28.8587C68.1082 29.1467 68.365 29.4348 68.5904 29.7228C68.8283 30.0108 68.9661 30.2362 69.0036 30.399C69.0663 30.6495 69.0537 30.8874 68.9661 31.1128C68.8784 31.3257 68.7407 31.5011 68.5528 31.6388C68.3775 31.7766 68.1709 31.8517 67.9329 31.8642C67.7075 31.8768 67.4821 31.8016 67.2567 31.6388C67.1565 31.5637 67.05 31.476 66.9373 31.3758C66.8372 31.2631 66.737 31.1504 66.6368 31.0377C66.5491 30.925 66.4615 30.8186 66.3738 30.7184C66.2861 30.6057 66.211 30.518 66.1484 30.4554C65.5598 29.8167 64.9775 29.1906 64.4014 28.5769C63.8254 27.9633 63.243 27.3434 62.6545 26.7173C62.5919 26.7423 62.523 26.7736 62.4478 26.8112C62.3727 26.8362 62.3038 26.8613 62.2412 26.8863C62.2412 27.525 62.2475 28.1637 62.26 28.8024C62.2725 29.4285 62.2913 30.0609 62.3163 30.6996V30.8311Z" fill="black"/>
<path d="M62.3163 106.024C62.2788 106.299 62.1723 106.537 61.997 106.738C61.8217 106.951 61.6213 107.095 61.3959 107.17C61.1705 107.245 60.9451 107.245 60.7197 107.17C60.4942 107.095 60.3189 106.913 60.1937 106.625C60.1311 106.487 60.0872 106.243 60.0622 105.892C60.0372 105.529 60.0184 105.154 60.0058 104.765C59.9933 104.377 59.9871 104.02 59.9871 103.695C59.9996 103.357 60.0058 103.15 60.0058 103.075V99.1488C60.0058 99.1112 59.9996 98.9234 59.9871 98.5853C59.9871 98.2472 59.9871 97.8777 59.9871 97.477C59.9996 97.0637 60.0184 96.6693 60.0434 96.2936C60.081 95.9054 60.1436 95.6424 60.2313 95.5046C60.344 95.3168 60.4817 95.1853 60.6445 95.1101C60.8073 95.0225 60.9701 94.9849 61.1329 94.9974C61.3082 95.01 61.4773 95.06 61.6401 95.1477C61.8154 95.2354 61.9594 95.3669 62.0721 95.5422C62.1222 95.6048 62.1661 95.6799 62.2036 95.7676C62.2537 95.8553 62.2788 95.9367 62.2788 96.0118C62.2913 96.6129 62.2913 97.2077 62.2788 97.7963C62.2663 98.3724 62.26 98.961 62.26 99.5621C62.7108 99.2991 63.1241 99.0048 63.4998 98.6792C63.888 98.3411 64.2637 97.9591 64.6268 97.5333C64.7145 97.4206 64.8397 97.2516 65.0025 97.0262C65.1653 96.8007 65.3407 96.5691 65.5285 96.3311C65.7163 96.0932 65.9042 95.874 66.092 95.6737C66.2799 95.4608 66.4427 95.323 66.5804 95.2604C66.8559 95.1227 67.1189 95.0726 67.3694 95.1101C67.6198 95.1477 67.8265 95.2479 67.9893 95.4107C68.1521 95.561 68.2523 95.7613 68.2898 96.0118C68.3399 96.2497 68.2961 96.5002 68.1583 96.7632C68.1082 96.8759 68.0519 96.9698 67.9893 97.0449C67.9392 97.1201 67.8828 97.189 67.8202 97.2516C67.7701 97.3142 67.7138 97.3831 67.6512 97.4582C67.5885 97.5333 67.5259 97.621 67.4633 97.7212C67.3005 97.9842 67.1064 98.2534 66.881 98.5289C66.6556 98.7919 66.4176 99.0549 66.1672 99.3179C65.9167 99.5683 65.66 99.8125 65.397 100.05C65.134 100.288 64.8836 100.514 64.6456 100.727C64.9587 101.065 65.2718 101.403 65.5849 101.741C65.8979 102.079 66.2173 102.417 66.5429 102.755C66.618 102.831 66.7808 102.993 67.0313 103.244C67.2817 103.482 67.5447 103.751 67.8202 104.052C68.1082 104.34 68.365 104.628 68.5904 104.916C68.8283 105.204 68.9661 105.429 69.0036 105.592C69.0663 105.842 69.0537 106.08 68.9661 106.306C68.8784 106.519 68.7407 106.694 68.5528 106.832C68.3775 106.969 68.1709 107.045 67.9329 107.057C67.7075 107.07 67.4821 106.994 67.2567 106.832C67.1565 106.757 67.05 106.669 66.9373 106.569C66.8372 106.456 66.737 106.343 66.6368 106.231C66.5491 106.118 66.4615 106.011 66.3738 105.911C66.2861 105.799 66.211 105.711 66.1484 105.648C65.5598 105.01 64.9775 104.383 64.4014 103.77C63.8254 103.156 63.243 102.536 62.6545 101.91C62.5919 101.935 62.523 101.966 62.4478 102.004C62.3727 102.029 62.3038 102.054 62.2412 102.079C62.2412 102.718 62.2475 103.357 62.26 103.995C62.2725 104.621 62.2913 105.254 62.3163 105.892V106.024Z" fill="black"/>
<path d="M98.2979 107.095C98.2603 107.408 98.1288 107.665 97.9034 107.865C97.678 108.065 97.4338 108.191 97.1708 108.241C96.9078 108.303 96.6636 108.278 96.4382 108.166C96.2253 108.053 96.1126 107.827 96.1001 107.489C96.0375 106.049 96.0062 104.559 96.0062 103.019C96.0062 101.466 96.0062 99.9254 96.0062 98.3976C95.8058 98.3225 95.6555 98.2098 95.5554 98.0595C95.4552 97.9092 95.3926 97.7464 95.3675 97.5711C95.355 97.3832 95.38 97.1954 95.4426 97.0075C95.5053 96.8197 95.5992 96.6569 95.7244 96.5192C95.8622 96.3689 96.05 96.2311 96.288 96.1059C96.5259 95.9807 96.7826 95.868 97.0581 95.7678C97.3461 95.6551 97.6279 95.5611 97.9034 95.486C98.1789 95.4109 98.4106 95.3545 98.5985 95.3169C99.3874 95.1541 100.183 95.1604 100.984 95.3357C101.786 95.4985 102.487 95.7991 103.088 96.2374C103.702 96.6757 104.159 97.2455 104.459 97.9468C104.76 98.6481 104.791 99.4495 104.553 100.351C104.478 100.602 104.384 100.852 104.271 101.103C104.159 101.353 104.027 101.585 103.877 101.798C103.664 102.123 103.414 102.411 103.126 102.662C102.837 102.912 102.524 103.144 102.186 103.357C102.424 103.607 102.65 103.87 102.863 104.146C103.075 104.421 103.313 104.672 103.576 104.897C103.677 104.985 103.821 105.122 104.008 105.31C104.209 105.498 104.397 105.699 104.572 105.911C104.76 106.124 104.923 106.337 105.06 106.55C105.198 106.75 105.261 106.92 105.248 107.057C105.236 107.295 105.167 107.508 105.042 107.696C104.929 107.896 104.785 108.047 104.61 108.147C104.447 108.259 104.265 108.316 104.065 108.316C103.864 108.316 103.664 108.247 103.464 108.109C103.238 107.934 103.025 107.727 102.825 107.489C102.625 107.251 102.43 107.032 102.243 106.832C101.829 106.381 101.422 105.93 101.022 105.479C100.633 105.016 100.233 104.565 99.8194 104.127C99.569 104.177 99.3123 104.215 99.0493 104.24C98.7988 104.252 98.5484 104.271 98.2979 104.296V106.963V107.095ZM101.66 98.0031C101.159 97.7026 100.608 97.5335 100.007 97.4959C99.4187 97.4584 98.8489 97.5398 98.2979 97.7401V101.985C98.8614 101.948 99.4124 101.879 99.9509 101.779C100.502 101.666 101.009 101.428 101.472 101.065C101.723 100.865 101.923 100.633 102.074 100.37C102.236 100.094 102.33 99.819 102.355 99.5435C102.393 99.2554 102.355 98.9799 102.243 98.7169C102.142 98.4414 101.948 98.2035 101.66 98.0031Z" fill="black"/>
<path d="M61.8655 69.9865C61.327 69.9239 60.9952 69.7485 60.8699 69.4605C60.7572 69.16 60.7572 68.8344 60.8699 68.4837V60.8572C60.6696 60.8572 60.488 60.8071 60.3252 60.7069C60.1749 60.5942 60.0497 60.4565 59.9495 60.2937C59.8618 60.1309 59.818 59.9555 59.818 59.7677C59.818 59.5673 59.8744 59.3857 59.9871 59.2229C60.2375 58.8472 60.5569 58.553 60.9451 58.3401C61.3458 58.1272 61.7591 57.9519 62.1849 57.8141C62.8486 57.6012 63.5123 57.4822 64.176 57.4572C64.8523 57.4321 65.516 57.5699 66.1672 57.8705C66.7558 58.146 67.2191 58.5029 67.5572 58.9412C67.8953 59.3795 68.1082 59.8491 68.1959 60.35C68.2836 60.8384 68.2397 61.3456 68.0644 61.8716C67.8891 62.385 67.576 62.8671 67.1252 63.318C67.7138 63.6937 68.1333 64.1445 68.3837 64.6705C68.6342 65.1839 68.7344 65.7161 68.6843 66.2671C68.6467 66.8181 68.4714 67.3504 68.1583 67.8638C67.8578 68.3773 67.4445 68.8218 66.9186 69.1975C66.6055 69.4229 66.236 69.592 65.8103 69.7047C65.397 69.8299 64.965 69.9176 64.5141 69.9677C64.0758 70.0178 63.6375 70.0428 63.1992 70.0428C62.7609 70.0428 62.3602 70.0303 61.997 70.0053L61.8655 69.9865ZM65.8666 65.2152C65.6412 65.0649 65.4221 64.9522 65.2092 64.8771C64.9963 64.8019 64.7771 64.7519 64.5517 64.7268C64.3388 64.7018 64.1197 64.6955 63.8942 64.708C63.6688 64.7205 63.4246 64.7331 63.1616 64.7456V67.7511C63.4372 67.7511 63.7314 67.7449 64.0445 67.7323C64.3576 67.7073 64.6581 67.6572 64.9462 67.5821C65.2342 67.4944 65.5035 67.3754 65.7539 67.2251C66.0044 67.0749 66.2047 66.8682 66.355 66.6053C66.3926 66.3047 66.3863 66.048 66.3362 65.8351C66.2861 65.6097 66.1296 65.403 65.8666 65.2152ZM63.1616 62.3224C63.3871 62.3224 63.6125 62.3224 63.8379 62.3224C64.0633 62.3224 64.2825 62.3036 64.4953 62.266C64.7208 62.2159 64.9337 62.1408 65.134 62.0406C65.3469 61.9404 65.5348 61.7964 65.6976 61.6086C65.9355 61.3456 66.0169 61.0701 65.9418 60.7821C65.8791 60.4815 65.7038 60.2436 65.4158 60.0682C65.0902 59.8554 64.7208 59.7489 64.3075 59.7489C63.8942 59.7364 63.5123 59.7802 63.1616 59.8804V62.3224Z" fill="black"/>
<path d="M25.735 67.9951C25.6975 68.2707 25.591 68.5086 25.4157 68.709C25.2404 68.9218 25.04 69.0659 24.8146 69.141C24.5892 69.2161 24.3638 69.2161 24.1384 69.141C23.9129 69.0659 23.7376 68.8843 23.6124 68.5962C23.5498 68.4585 23.5059 68.2143 23.4809 67.8637C23.4559 67.5005 23.4371 67.1248 23.4245 66.7366C23.412 66.3484 23.4058 65.9915 23.4058 65.6659C23.4183 65.3277 23.4245 65.1211 23.4245 65.046V61.12C23.4245 61.0824 23.4183 60.8946 23.4058 60.5565C23.4058 60.2183 23.4058 59.8489 23.4058 59.4482C23.4183 59.0349 23.4371 58.6404 23.4621 58.2648C23.4997 57.8765 23.5623 57.6136 23.65 57.4758C23.7627 57.288 23.9004 57.1565 24.0632 57.0813C24.226 56.9937 24.3888 56.9561 24.5516 56.9686C24.7269 56.9811 24.896 57.0312 25.0588 57.1189C25.2341 57.2066 25.3781 57.3381 25.4908 57.5134C25.5409 57.576 25.5848 57.6511 25.6223 57.7388C25.6724 57.8265 25.6975 57.9079 25.6975 57.983C25.71 58.5841 25.71 59.1789 25.6975 59.7675C25.685 60.3436 25.6787 60.9322 25.6787 61.5333C26.1295 61.2703 26.5428 60.976 26.9185 60.6504C27.3067 60.3123 27.6824 59.9303 28.0455 59.5045C28.1332 59.3918 28.2584 59.2228 28.4212 58.9974C28.584 58.7719 28.7594 58.5403 28.9472 58.3023C29.135 58.0644 29.3229 57.8452 29.5107 57.6449C29.6986 57.432 29.8614 57.2942 29.9991 57.2316C30.2746 57.0939 30.5376 57.0438 30.7881 57.0813C31.0385 57.1189 31.2452 57.2191 31.408 57.3819C31.5708 57.5322 31.671 57.7325 31.7085 57.983C31.7586 58.2209 31.7148 58.4714 31.577 58.7344C31.5269 58.8471 31.4706 58.941 31.408 59.0161C31.3579 59.0913 31.3015 59.1602 31.2389 59.2228C31.1888 59.2854 31.1325 59.3543 31.0699 59.4294C31.0072 59.5045 30.9446 59.5922 30.882 59.6924C30.7192 59.9554 30.5251 60.2246 30.2997 60.5001C30.0743 60.7631 29.8363 61.0261 29.5859 61.2891C29.3354 61.5395 29.0787 61.7837 28.8157 62.0217C28.5527 62.2596 28.3023 62.485 28.0643 62.6979C28.3774 63.036 28.6905 63.3741 29.0036 63.7123C29.3166 64.0504 29.636 64.3885 29.9616 64.7266C30.0367 64.8018 30.1995 64.9646 30.45 65.215C30.7004 65.453 30.9634 65.7222 31.2389 66.0228C31.5269 66.3108 31.7837 66.5988 32.0091 66.8869C32.247 67.1749 32.3848 67.4003 32.4223 67.5631C32.485 67.8136 32.4724 68.0515 32.3848 68.2769C32.2971 68.4898 32.1594 68.6651 31.9715 68.8029C31.7962 68.9406 31.5896 69.0158 31.3516 69.0283C31.1262 69.0408 30.9008 68.9657 30.6754 68.8029C30.5752 68.7277 30.4687 68.6401 30.356 68.5399C30.2559 68.4272 30.1557 68.3145 30.0555 68.2018C29.9678 68.0891 29.8802 67.9826 29.7925 67.8824C29.7048 67.7697 29.6297 67.6821 29.5671 67.6195C28.9785 66.9808 28.3962 66.3546 27.8201 65.741C27.2441 65.1274 26.6617 64.5075 26.0732 63.8813C26.0106 63.9064 25.9417 63.9377 25.8665 63.9753C25.7914 64.0003 25.7225 64.0253 25.6599 64.0504C25.6599 64.6891 25.6662 65.3277 25.6787 65.9664C25.6912 66.5926 25.71 67.225 25.735 67.8637V67.9951Z" fill="black"/>
<path d="M102.712 29.178C102.938 29.1906 103.132 29.2532 103.295 29.3659C103.47 29.4661 103.608 29.5913 103.708 29.7416C103.821 29.8919 103.883 30.0672 103.896 30.2675C103.921 30.4554 103.883 30.6495 103.783 30.8499C103.745 30.9375 103.664 31.044 103.539 31.1692C103.426 31.2819 103.32 31.3508 103.219 31.3758C102.418 31.6138 101.591 31.7578 100.74 31.8079C99.9008 31.8705 99.0681 31.858 98.2415 31.7703C98.0036 31.7453 97.7406 31.7202 97.4526 31.6952C97.1771 31.6701 96.9329 31.5887 96.72 31.451C96.3318 31.2005 96.1377 30.8436 96.1377 30.3803V22.378C95.9999 22.2779 95.8872 22.1526 95.7996 22.0024C95.7119 21.8521 95.6555 21.6955 95.6305 21.5327C95.618 21.3574 95.643 21.1946 95.7056 21.0443C95.7682 20.8815 95.8747 20.7438 96.025 20.6311C96.2754 20.4307 96.5635 20.2992 96.8891 20.2366C97.2147 20.1615 97.534 20.0989 97.8471 20.0488C98.4983 19.9486 99.1495 19.8985 99.8007 19.8985C100.452 19.8985 101.116 19.8922 101.792 19.8797C101.992 19.8797 102.224 19.8672 102.487 19.8421C102.75 19.8046 102.982 19.8233 103.182 19.8985C103.42 19.9861 103.608 20.1239 103.745 20.3117C103.883 20.4996 103.965 20.7 103.99 20.9128C104.015 21.1257 103.971 21.3324 103.858 21.5327C103.758 21.7331 103.576 21.8896 103.313 22.0024C103 22.1276 102.662 22.1839 102.299 22.1714C101.948 22.1589 101.61 22.1526 101.285 22.1526C100.809 22.1526 100.333 22.1589 99.857 22.1714C99.3811 22.1839 98.9053 22.2215 98.4294 22.2841V24.8952C98.8802 24.9202 99.331 24.9202 99.7819 24.8952C100.233 24.8701 100.684 24.8388 101.134 24.8012C101.335 24.7887 101.535 24.7699 101.735 24.7449C101.936 24.7198 102.142 24.7198 102.355 24.7449C102.631 24.7825 102.844 24.8952 102.994 25.083C103.144 25.2709 103.232 25.4838 103.257 25.7217C103.295 25.9471 103.257 26.1725 103.144 26.3979C103.032 26.6233 102.85 26.7861 102.6 26.8863C102.387 26.974 102.099 27.0429 101.735 27.093C101.372 27.1305 100.99 27.1618 100.59 27.1869C100.189 27.1994 99.7944 27.2057 99.4062 27.2057C99.018 27.2057 98.6924 27.1994 98.4294 27.1869V29.4974C99.1182 29.585 99.8132 29.5976 100.514 29.5349C101.216 29.4723 101.905 29.3534 102.581 29.178H102.712Z" fill="black"/>
<path d="M102.712 67.2064C102.938 67.2189 103.132 67.2815 103.295 67.3942C103.47 67.4944 103.608 67.6196 103.708 67.7699C103.821 67.9202 103.883 68.0955 103.896 68.2959C103.921 68.4837 103.883 68.6778 103.783 68.8782C103.745 68.9658 103.664 69.0723 103.539 69.1975C103.426 69.3102 103.32 69.3791 103.219 69.4042C102.418 69.6421 101.591 69.7861 100.74 69.8362C99.9008 69.8988 99.0681 69.8863 98.2415 69.7986C98.0036 69.7736 97.7406 69.7485 97.4526 69.7235C97.1771 69.6984 96.9329 69.617 96.72 69.4793C96.3318 69.2288 96.1377 68.8719 96.1377 68.4086V60.4064C95.9999 60.3062 95.8872 60.1809 95.7996 60.0307C95.7119 59.8804 95.6555 59.7239 95.6305 59.5611C95.618 59.3857 95.643 59.2229 95.7056 59.0727C95.7682 58.9099 95.8747 58.7721 96.025 58.6594C96.2754 58.459 96.5635 58.3275 96.8891 58.2649C97.2147 58.1898 97.534 58.1272 97.8471 58.0771C98.4983 57.9769 99.1495 57.9268 99.8007 57.9268C100.452 57.9268 101.116 57.9205 101.792 57.908C101.992 57.908 102.224 57.8955 102.487 57.8705C102.75 57.8329 102.982 57.8517 103.182 57.9268C103.42 58.0145 103.608 58.1522 103.745 58.3401C103.883 58.5279 103.965 58.7283 103.99 58.9412C104.015 59.1541 103.971 59.3607 103.858 59.5611C103.758 59.7614 103.576 59.918 103.313 60.0307C103 60.1559 102.662 60.2123 102.299 60.1997C101.948 60.1872 101.61 60.1809 101.285 60.1809C100.809 60.1809 100.333 60.1872 99.857 60.1997C99.3811 60.2123 98.9053 60.2498 98.4294 60.3124V62.9235C98.8802 62.9485 99.331 62.9485 99.7819 62.9235C100.233 62.8984 100.684 62.8671 101.134 62.8296C101.335 62.817 101.535 62.7983 101.735 62.7732C101.936 62.7482 102.142 62.7482 102.355 62.7732C102.631 62.8108 102.844 62.9235 102.994 63.1113C103.144 63.2992 103.232 63.5121 103.257 63.75C103.295 63.9754 103.257 64.2008 103.144 64.4263C103.032 64.6517 102.85 64.8145 102.6 64.9147C102.387 65.0023 102.099 65.0712 101.735 65.1213C101.372 65.1588 100.99 65.1902 100.59 65.2152C100.189 65.2277 99.7944 65.234 99.4062 65.234C99.018 65.234 98.6924 65.2277 98.4294 65.2152V67.5257C99.1182 67.6134 99.8132 67.6259 100.514 67.5633C101.216 67.5007 101.905 67.3817 102.581 67.2064H102.712Z" fill="black"/>
</svg>
