<svg width="112" height="105" viewBox="0 0 112 105" fill="none" xmlns="http://www.w3.org/2000/svg">
<path d="M107.377 101.281C107.547 99.0234 103.204 89.3356 102.019 86.7406C101.842 86.3524 101.925 85.9029 102.211 85.5874C104.227 83.3633 111.59 74.1392 106.597 62.8442C101.964 52.3651 94.2544 45.3896 80.663 43.1575C65.0347 40.5908 42.6853 47.629 38.9256 57.5214C34.2519 69.8187 36.0119 81.6011 48.5278 90.0823C60.2079 97.9971 85.4656 93.8763 88.7864 93.2907C89.026 93.2484 89.2539 93.2869 89.4642 93.41C91.8656 94.8155 107.197 103.69 107.377 101.281Z" fill="white" stroke="black" stroke-width="5" stroke-linecap="round"/>
<path d="M3.54309 3.55499C1.25812 4.88952 7.41424 17.0252 8.81551 19.715C8.98722 20.0446 8.96642 20.4283 8.77444 20.7457C7.27797 23.2191 1.26489 34.3541 7.52956 44.4008C13.2508 53.576 20.9607 57.7927 34.9008 58.5498C50.93 59.4203 68.7999 52.239 72.6205 37.8823C75.1953 28.2071 72.8608 19.6203 57.998 10.3622C44.324 1.84457 24.829 8.40909 21.7979 9.5137C21.5319 9.61063 21.2528 9.59348 20.9979 9.46899C18.5797 8.28758 5.86803 2.19712 3.54309 3.55499Z" fill="white" stroke="black" stroke-width="5" stroke-linecap="round"/>
<path d="M45.2738 31.8188C45.2029 31.8856 44.3662 32.6623 42.7636 34.1488C41.7376 35.0883 40.9736 35.9301 40.4718 36.6742C40.0165 37.3431 39.4613 37.7208 38.8062 37.8071C38.1623 37.8919 37.5639 37.7352 37.0109 37.3369C36.4563 36.9273 36.1347 36.4182 36.0461 35.8093C35.9149 34.9074 36.4966 33.8023 37.7913 32.4942C38.9977 31.3701 40.2032 30.2403 41.408 29.1049C42.7043 27.8081 43.2877 26.7143 43.1581 25.8236C43.0055 24.7751 42.3262 23.8649 41.1203 23.093C39.9239 22.3084 38.7497 21.992 37.5975 22.1437C36.9876 22.2241 36.2026 22.6837 35.2425 23.5226C34.2808 24.3502 33.5796 24.793 33.1391 24.8511C32.4727 24.9388 31.8726 24.7708 31.339 24.347C30.8149 23.9105 30.5095 23.3934 30.4225 22.7959C30.2584 21.6684 31.0967 20.5066 32.9373 19.3104C34.4925 18.2897 35.8237 17.7065 36.9306 17.5607C39.3818 17.2378 41.727 17.8481 43.9662 19.3916C46.2167 20.9336 47.5118 22.8716 47.8514 25.2054C48.1878 27.5167 47.3286 29.7211 45.2738 31.8188ZM38.9104 45.0497C38.2665 45.1345 37.6496 45.0089 37.0596 44.673C36.4179 44.2979 36.0487 43.7777 35.9519 43.1125C35.8403 42.3459 35.9629 41.6058 36.3195 40.8924C36.7453 40.0205 37.4156 39.5243 38.3305 39.4037C39.0986 39.3026 39.7391 39.5112 40.252 40.0296C40.6598 40.4585 40.9105 40.9943 41.004 41.6369C41.1041 42.3247 41.0112 42.9919 40.7254 43.6385C40.3625 44.4677 39.7575 44.9381 38.9104 45.0497Z" fill="black"/>
<path d="M60.7646 67.3435V73.9729" stroke="black" stroke-width="6" stroke-linecap="round"/>
<path d="M73.7046 67.3435V73.9729" stroke="black" stroke-width="6" stroke-linecap="round"/>
<path d="M86.6493 67.3435V73.9729" stroke="black" stroke-width="6" stroke-linecap="round"/>
</svg>
