<svg width="111" height="111" viewBox="0 0 111 111" fill="none" xmlns="http://www.w3.org/2000/svg">
<rect x="1.00012" width="106" height="110" rx="1" fill="white"/>
<mask id="path-2-inside-1_214_1271" fill="white">
<rect x="0.00012207" width="111" height="111" rx="1"/>
</mask>
<rect x="0.00012207" width="111" height="111" rx="1" fill="white" stroke="black" stroke-width="8" mask="url(#path-2-inside-1_214_1271)"/>
<path d="M91.8605 65.769C89.3702 65.769 87.5351 64.882 86.3551 63.1079C86.1517 62.7987 86.0499 62.5016 86.0499 62.2168C86.0499 61.7773 86.2249 61.403 86.5748 61.0938C86.9248 60.7845 87.3235 60.6299 87.7711 60.6299C88.2268 60.6299 88.6175 60.8008 88.943 61.1426C89.5127 61.7367 89.8219 62.054 89.8707 62.0947C90.3509 62.4365 91.0141 62.6074 91.8605 62.6074C93.1137 62.6074 94.1595 62.1476 94.9977 61.228C95.8033 60.341 96.2062 59.2668 96.2062 58.0054C96.2062 56.7928 96.0027 55.8854 95.5958 55.2832C95.1971 54.681 94.5908 54.3799 93.777 54.3799C92.3447 54.3799 91.1932 54.8438 90.3224 55.7715C89.9806 56.1621 89.6347 56.5487 89.2848 56.9312C88.8453 57.3462 88.3774 57.5537 87.881 57.5537C87.4171 57.5537 87.0224 57.395 86.6969 57.0776C86.3795 56.7603 86.2208 56.3859 86.2208 55.9546C86.2208 55.7674 86.29 55.0594 86.4283 53.8306C86.6969 51.4461 86.8312 49.8592 86.8312 49.0698C86.8312 48.8745 86.7579 48.606 86.6115 48.2642C86.4731 47.9224 86.4039 47.6538 86.4039 47.4585C86.4039 47.0516 86.6115 46.7424 87.0265 46.5308C87.352 46.368 87.7345 46.2866 88.174 46.2866C88.3367 46.2866 88.5809 46.3029 88.9064 46.3354C89.24 46.3599 89.4882 46.3721 89.651 46.3721L95.5226 46.3843C95.6691 46.3843 95.9824 46.3599 96.4625 46.311C96.9427 46.2622 97.2601 46.2378 97.4147 46.2378C97.8541 46.2378 98.2163 46.3802 98.5011 46.665C98.7859 46.9417 98.9283 47.2998 98.9283 47.7393C98.9283 48.9518 97.6954 49.5581 95.2296 49.5581C95.0343 49.5581 94.7861 49.554 94.485 49.5459C94.192 49.5378 93.9967 49.5337 93.899 49.5337H90.2614C90.2369 50.0301 90.1352 50.8521 89.9562 51.9995C91.0223 51.4787 92.2959 51.2183 93.777 51.2183C95.7545 51.2183 97.256 51.9548 98.2814 53.4277C99.1359 54.6403 99.5631 56.1662 99.5631 58.0054C99.5631 60.2189 98.8795 62.05 97.5123 63.4985C96.0882 65.0122 94.2042 65.769 91.8605 65.769Z" fill="black"/>
<line x1="75.0001" y1="2" x2="75.0001" y2="110" stroke="black" stroke-width="4"/>
<line x1="40.0001" y1="1" x2="40.0001" y2="109" stroke="black" stroke-width="4"/>
<line x1="110.001" y1="38.75" x2="0.997253" y2="38.75" stroke="black" stroke-width="4"/>
<line x1="110.001" y1="72.876" x2="-7.62939e-06" y2="72.876" stroke="black" stroke-width="4"/>
<path d="M90.5197 29.8789C88.2166 29.8789 86.5157 29.0651 85.4171 27.4375C84.5382 26.1354 84.0988 24.4264 84.0988 22.3105C84.0988 18.3473 85.7833 14.9131 89.1525 12.0078C89.5756 11.6009 89.9988 11.1981 90.422 10.7993C91.0161 10.2703 91.5084 10.0059 91.899 10.0059C92.3466 10.0059 92.7413 10.1605 93.0831 10.4697C93.4249 10.7708 93.604 11.137 93.6202 11.5684C93.6365 11.9753 93.1726 12.6304 92.2286 13.5337C91.5532 14.1522 90.8818 14.7666 90.2145 15.377C89.4658 16.1094 88.9246 16.8255 88.5909 17.5254C89.0304 17.3545 89.4373 17.2284 89.8116 17.147C90.1941 17.0656 90.5441 17.0249 90.8615 17.0249C92.896 17.0249 94.4707 17.5579 95.5856 18.624C96.7005 19.682 97.2579 21.159 97.2579 23.0552C97.2579 25.0246 96.6679 26.64 95.4879 27.9014C94.2428 29.2197 92.5867 29.8789 90.5197 29.8789ZM90.5197 20.3208C89.9174 20.3208 89.3763 20.4185 88.8961 20.6138C88.6438 20.7196 88.18 20.9759 87.5045 21.3828C87.472 21.7165 87.4557 22.0257 87.4557 22.3105C87.4557 23.8486 87.7161 25.0042 88.2369 25.7773C88.7578 26.5423 89.539 26.9248 90.5807 26.9248C91.6468 26.9248 92.4728 26.5667 93.0587 25.8506C93.6202 25.167 93.901 24.2352 93.901 23.0552C93.901 22.1437 93.6202 21.4601 93.0587 21.0044C92.4972 20.5487 91.6508 20.3208 90.5197 20.3208Z" fill="black"/>
<path d="M57.0948 65.7119C55.1437 65.7119 53.5441 65.2988 52.296 64.4727C50.8458 63.5059 50.1075 62.0952 50.0812 60.2407C50.0372 57.6479 50.8898 55.7891 52.6388 54.6641C51.3644 53.6533 50.7272 52.3833 50.7272 50.854C50.7272 49.1226 51.3864 47.6855 52.7047 46.543C53.9615 45.4531 55.4777 44.8994 57.2531 44.8818C59.3536 44.8643 60.9269 45.4224 61.9728 46.5562C62.8693 47.5405 63.3175 48.8853 63.3175 50.5903C63.3175 51.5483 63.1461 52.3174 62.8033 52.8975C62.4957 53.416 61.9816 53.8862 61.2609 54.3081C62.3331 54.9058 63.1022 55.6001 63.568 56.3911C64.1041 57.27 64.3722 58.4258 64.3722 59.8584C64.3722 61.7393 63.6383 63.2114 62.1705 64.2749C60.8434 65.2329 59.1515 65.7119 57.0948 65.7119ZM57.2135 48.125C55.2887 48.125 54.3351 49.0303 54.3527 50.8408C54.3615 51.7461 55.192 52.4097 56.8444 52.8315C57.7672 52.5767 58.4044 52.3438 58.756 52.1328C59.38 51.7549 59.692 51.2407 59.692 50.5903C59.692 49.606 59.4811 48.9336 59.0592 48.5732C58.7076 48.2744 58.0924 48.125 57.2135 48.125ZM57.0157 56.1143C55.7501 56.668 54.9152 57.1558 54.5109 57.5776C53.922 58.1665 53.6451 59.0059 53.6803 60.0957C53.7067 60.9482 54.1198 61.5898 54.9196 62.0205C55.5436 62.3545 56.2687 62.5215 57.0948 62.5215C58.4747 62.5215 59.424 62.2314 59.9425 61.6514C60.3468 61.1943 60.549 60.4648 60.549 59.4629C60.549 58.5576 60.193 57.8237 59.4811 57.2612C58.9449 56.8394 58.1232 56.457 57.0157 56.1143Z" fill="black"/>
<path d="M23.837 66.0132L18.6031 66C16.942 66 16.1115 65.4771 16.1115 64.4312C16.1115 63.2534 17.0387 62.6646 18.8932 62.6646C19.069 62.6646 19.2623 62.6689 19.4733 62.6777V50.9839C18.7086 51.5112 18.212 51.7749 17.9835 51.7749C17.4913 51.7749 17.0607 51.5991 16.6915 51.2476C16.3312 50.896 16.151 50.4873 16.151 50.0215C16.151 49.5381 16.4454 49.0415 17.0343 48.5317L18.524 47.4507L20.1324 46.1587C20.7916 45.6841 21.4288 45.4468 22.0441 45.4468C22.8351 45.4468 23.2306 45.9214 23.2306 46.8706C23.2306 47.9165 23.1866 49.3887 23.0988 51.2871C23.0109 53.1855 22.9669 55.897 22.9669 59.4214V62.6118H23.837C24.3468 62.6118 24.7731 62.7744 25.1158 63.0996C25.4674 63.4248 25.6432 63.8291 25.6432 64.3125C25.6432 64.7959 25.4674 65.2002 25.1158 65.5254C24.7731 65.8506 24.3468 66.0132 23.837 66.0132Z" fill="black"/>
<path d="M23.6393 85.7314C22.6549 85.7227 20.8224 85.6831 18.1417 85.6128C17.4738 85.6128 16.4762 85.582 15.149 85.5205C13.9801 85.4238 13.3956 84.8569 13.3956 83.8198C13.3956 83.3364 13.5714 82.9321 13.923 82.6069C14.2745 82.2817 14.7052 82.1191 15.215 82.1191C16.3224 82.1191 17.9835 82.1543 20.1984 82.2246C22.422 82.2861 24.0875 82.3169 25.1949 82.3169H27.6075C28.0822 82.3169 28.4996 82.4092 28.86 82.5938C29.3082 82.8223 29.5323 83.1606 29.5323 83.6089C29.5323 84.0923 29.2687 84.668 28.7413 85.3359C28.3019 85.8281 27.858 86.3203 27.4098 86.8125C26.2936 88.0518 25.2609 89.5723 24.3116 91.374C24.0128 91.9365 23.2262 93.5845 21.9518 96.3179C21.7848 96.6782 21.4113 97.6626 20.8312 99.271C20.3917 100.484 19.9435 101.433 19.4865 102.119C19.1349 102.62 18.6471 102.87 18.0231 102.87C17.5397 102.87 17.109 102.708 16.7311 102.382C16.3531 102.057 16.1642 101.653 16.1642 101.169C16.1642 100.792 16.4586 99.9126 17.0475 98.5327C17.9967 96.3179 18.9415 94.103 19.882 91.8882C21.0948 89.3042 22.3473 87.252 23.6393 85.7314Z" fill="black"/>
</svg>
